PathFileType	4	(X/Y/Z)	RBDS025\RBDS025runT45.trc
DataRate	CameraRate	NumFrames	NumMarkers	Units	OrigDataRate	OrigDataStartFrame	OrigNumFrames
150.000000	150.000000	4	33	mm	150.000000	1125	4500
Frame#	Time	L.ASIS			L.Heel.Bottom			L.Heel.Lateral			L.Heel.Top			L.Iliac.Crest			L.MT1			L.MT5			L.PSIS			L.Shank.Bottom.Lateral			L.Shank.Bottom.Medial			L.Shank.Top.Lateral			L.Shank.Top.Medial			L.Thigh.Bottom.Lateral			L.Thigh.Bottom.Medial			L.Thigh.Top.Lateral			L.Thigh.Top.Medial			R.ASIS			R.ASY			R.Heel.Bottom			R.Heel.Lateral			R.Heel.Top			R.Iliac.Crest			R.MT1			R.MT5			R.PSIS			R.Shank.Bottom.Lateral			R.Shank.Bottom.Medial			R.Shank.Top.Lateral			R.Shank.Top.Medial			R.Thigh.Bottom.Lateral			R.Thigh.Bottom.Medial			R.Thigh.Top.Lateral			R.Thigh.Top.Medial			
		X1	Y1	Z1	X2	Y2	Z2	X3	Y3	Z3	X4	Y4	Z4	X5	Y5	Z5	X6	Y6	Z6	X7	Y7	Z7	X8	Y8	Z8	X9	Y9	Z9	X10	Y10	Z10	X11	Y11	Z11	X12	Y12	Z12	X13	Y13	Z13	X14	Y14	Z14	X15	Y15	Z15	X16	Y16	Z16	X17	Y17	Z17	X18	Y18	Z18	X19	Y19	Z19	X20	Y20	Z20	X21	Y21	Z21	X22	Y22	Z22	X23	Y23	Z23	X24	Y24	Z24	X25	Y25	Z25	X26	Y26	Z26	X27	Y27	Z27	X28	Y28	Z28	X29	Y29	Z29	X30	Y30	Z30	X31	Y31	Z31	X32	Y32	Z32	X33	Y33	Z33	

1126	7.500000000000001	2079.497495654015	883.9325382426101	864.1668892723111	1635.345355192885	83.61748165214952	955.9344038634799	1661.003448587352	97.05072784140926	908.7882701933507	1658.24204270872	122.495960691673	955.3390585988756	2007.849920428273	965.9783327158162	819.2173828256999	1837.90860052356	33.37016433858742	960.703127304457	1793.553899239652	44.18795459977348	854.1392157471827	1932.871940933964	964.2228133061381	929.4554443652162	1789.270411621791	182.0902218549461	883.4549225460653	1750.572914421004	217.4733016100783	902.6966679270995	1833.593404441238	245.0084539335707	859.5846560164462	1795.177915280252	279.8736709650624	875.6878655064584	1983.035225005513	541.2996877021607	813.9328730034953	1918.942831961832	537.4993941693856	848.4511795863225	1967.848335133898	648.1490745636926	800.0100494566553	1909.323090637497	646.2944842641491	837.5189703116783	2102.704658848879	881.1154106767781	1062.565488616072	1801.616359709055	241.884202596751	1045.469214822203	1719.006788120917	409.0054199196545	1003.223160039926	1742.633628546288	393.4450701921938	1048.584878257275	1763.677516316656	407.729458369589	1005.826707852062	2051.853256626777	945.9631922576127	1114.134123322978	1769.767941823347	201.2725628014082	1003.536925898219	1749.66060280598	244.1161796897004	1104.181069299412	1943.628539019825	955.882935575093	1031.53627888611	1882.029249158624	387.661692188673	1077.693986180167	1873.924986048638	424.5823484249361	1042.85569843558	1959.85866427419	418.6057980106163	1089.460123349193	1947.516820555573	455.7738398295539	1053.387297501605	2134.789664250256	547.7299172722469	1126.37758937532	2081.543678845822	520.8004452289938	1086.747161088824	2077.048214142529	641.0065489883279	1141.597744359819	2023.702789185994	612.4688296816259	1108.409872450557	
1127	7.506666666666667	2081.24385954386	886.7294558346915	864.7872801807353	1609.677870097024	94.57157859384409	954.7431614066448	1635.699056644758	105.4403300944358	907.2486807998866	1634.366992626046	132.1540415726601	953.1393535750007	2011.984623632955	969.9813800340319	819.7360620468955	1808.145489247015	33.5383089977634	960.3208262616128	1764.52438030038	44.55274440915758	853.4325249553269	1935.139964629541	968.3314376174775	929.1179571038393	1764.823934553495	188.9320316809641	880.7947244877815	1726.993033537686	224.3710061761608	901.2841116476158	1809.678263022497	251.6327561106312	857.3714864321519	1771.932108362327	286.6238417362161	874.4397246904615	1969.346134597065	545.7332257551169	813.3693875093467	1904.801185092422	544.9752737551136	847.3426739789858	1959.506056954837	653.1257612832998	799.8272626793707	1900.657483817793	654.1540507372223	836.9789736972359	2103.81707023623	886.8620321974123	1063.0522483921	1832.175002002374	226.4667478632414	1043.991235348217	1734.821389757061	385.3048174391402	1000.637640814518	1759.372636643353	372.0770945082194	1046.110565911104	1779.328919689795	388.2562155209823	1003.333956243076	2052.607676133716	952.2481700676176	1114.735351763788	1804.380149611162	183.0573108301348	1001.948922772805	1779.543542381099	223.9846615631911	1102.104598433576	1944.951744145136	961.1405265330698	1031.473815159842	1899.583999090549	377.8787232282269	1075.847347573105	1888.810303032309	414.0567007253585	1040.887635034147	1974.732527943985	414.8704840811874	1087.870190465142	1959.686850719555	450.9633992173024	1051.681651757556	2144.61245481398	558.8103717317101	1125.966096686852	2092.614814134768	530.4054854665291	1085.632686046391	2083.638025914172	649.7746810216682	1141.810359850152	2031.403953561965	619.7318389344514	1107.838221571699	
1128	7.513333333333334	2083.383985077067	889.5554075028584	865.6121834757344	1585.606523640132	106.6989525034169	953.2691009332619	1611.849335802106	114.8064422082536	905.4470949291518	1612.210942915691	142.6906994022064	950.6219666603725	2016.746675255414	973.8220989897669	820.2765698832076	1779.069309546453	34.10486907772817	959.6700268863767	1736.015468012338	45.36685581235275	852.5754068784372	1937.7620359797	972.4355112616162	928.758872801575	1741.350883563101	196.6487451499139	877.6618296910863	1704.38658964877	231.8834985686413	899.6946889779025	1786.431192059882	259.3569996248308	854.7463219508636	1749.374699673013	294.2248043212334	873.1056152275199	1955.786939940656	551.2886460800771	812.5329443586498	1891.097321662172	553.604464916758	846.1798767605369	1951.363650076272	658.9502613381753	799.5028177453818	1892.453561997823	662.8498859605758	836.4708202061073	2105.171151934427	892.8103088887443	1063.625824660772	1863.83288088602	211.4384875740996	1042.552347177568	1752.162139255434	360.4160050871425	997.7746954090131	1777.427369652429	349.7174594230937	1043.424117326956	1796.145291479926	367.7029185685772	1000.626110536005	2053.917920799411	958.9915855265143	1115.36059578628	1840.506782283741	165.4830559784018	1000.485469963611	1810.908016709633	204.1590602397283	1100.08498956305	1946.574848987304	966.5087549673021	1031.43106586338	1917.499081747134	367.5645171295066	1073.905470791428	1904.04219533121	402.7418617509912	1038.786896186087	1989.416938402091	410.5741343186541	1086.181783574422	1971.678858208636	445.3258362039461	1049.859512344893	2153.376538305741	569.7073098003701	1125.474138424764	2102.482970993472	540.1397227272743	1084.522840553574	2089.670506557019	658.4900245720823	1142.101821111891	2038.461766177033	627.3198300235811	1107.282813815162	
1129	7.52	2085.843448934977	892.3201331974323	866.6332456173844	1563.268195425211	119.9057313699312	951.432295328965	1589.576622710026	125.1159773809999	903.3214028267917	1591.857361393217	154.0203729870133	947.7384517773827	2022.099228979631	977.4117255839381	820.8093331275236	1750.822837721763	35.21168604173247	958.6880538455638	1708.156390080002	46.77784458519629	851.5354613529304	1940.671502293749	976.4633316760944	928.3357993830223	1718.962703612807	205.1638572896287	874.0936636739913	1682.836634360354	239.9460372096086	897.9008291090045	1763.985867870111	268.0954346034015	851.7623636050241	1727.620590585293	302.5994253949992	871.6909578716177	1942.4005474977	557.9190049321098	811.5035860131325	1877.877209725835	563.31277266122	845.0571033184455	1943.435035242042	665.5801875717608	799.082687505673	1884.739488885081	672.3065001618481	836.0677962093018	2106.700372852744	898.834865187159	1064.296017633018	1896.591410265402	196.9952641055934	1041.140351303941	1771.300190373758	334.6063691275028	994.750427398813	1797.051245217159	326.5768032024296	1040.622599766007	1814.374044576046	346.2562727299043	997.8011896950978	2055.669712618135	966.063766830675	1115.982970295956	1878.094970682414	148.833341447203	999.1337651310178	1843.817585107535	184.8785299863311	1098.151101662177	1948.440815306011	971.8643371922082	1031.359666177137	1935.940946709973	356.7455050535491	1071.919365871922	1919.822700374486	390.6702690842608	1036.626563500703	2004.077161859879	405.6315970653819	1084.455673622384	1983.704510007216	438.7837823092267	1047.989482247143	2161.126156703252	580.1526104236563	1124.90228766501	2111.136246599149	549.6834863287531	1083.490803832759	2095.175129606332	666.9546804818081	1142.425208645452	2044.8653085409	634.9915340376813	1106.779876977866	
